#!OML:ASF F:\VICON\USERDATA\INSTALL\rory3\rory3.ASF
:FULLY-SPECIFIED
:DEGREES
3162
root -9.37003 18.0512 8.73203 904.015 49.3178 -543.721
lowerback 12.3596 -5.5146 -2.35001
upperback 2.23101 -6.94866 6.62963
thorax -3.40293 -3.29106 9.38239
lowerneck 4.14779 -19.515 -14.1616
upperneck 40.9098 -26.5244 7.02222
head 17.6879 -11.7394 1.67659
rclavicle 1.49884e-013 4.77083e-014
rhumerus -31.4276 -8.43413 -71.8045
rradius 44.2776
rwrist -0.724109
rhand -14.9425 8.18442
rfingers 7.12502
rthumb 11.2202 -21.4955
lclavicle 1.49884e-013 4.77083e-014
lhumerus -34.321 6.36132 80.2969
lradius 39.2635
lwrist -2.27249
lhand -21.8594 25.1838
lfingers 7.12502
lthumb 4.54457 55.1151
rfemur -23.4544 0.904352 22.6708
rtibia 27.6224
rfoot -9.11585 3.89022
rtoes 2.12426
lfemur -3.93887 8.90662 -25.2541
ltibia 39.112
lfoot -5.53457 -8.84703
ltoes -17.363
3163
root -9.42707 18.0352 8.82963 903.947 48.931 -543.731
lowerback 12.5267 -5.58942 -2.44983
upperback 2.17218 -7.05743 6.63731
thorax -3.52387 -3.33856 9.48706
lowerneck 4.10954 -19.4768 -14.1124
upperneck 40.9276 -26.4569 6.99614
head 17.6782 -11.7026 1.67241
rclavicle 5.68524e-014 3.18055e-015
rhumerus -31.5013 -8.68815 -71.7285
rradius 44.0791
rwrist -0.395773
rhand -15.1005 8.31077
rfingers 7.12502
rthumb 11.0678 -21.3774
lclavicle 5.68524e-014 3.18055e-015
lhumerus -34.1656 6.78115 80.0037
lradius 39.5333
lwrist -4.4188
lhand -19.4172 27.1538
lfingers 7.12502
lthumb 6.90241 57.0212
rfemur -23.8217 0.822624 22.7659
rtibia 27.6941
rfoot -8.7791 3.67023
rtoes 1.83577
lfemur -3.04437 8.85196 -25.537
ltibia 38.1526
lfoot -5.46062 -9.05487
ltoes -17.644
3164
root -9.48232 18.0207 8.92871 903.986 48.5853 -543.74
lowerback 12.4684 -5.6296 -2.54025
upperback 2.15539 -7.12436 6.65043
thorax -3.4846 -3.37357 9.55478
lowerneck 3.95207 -19.4558 -14.0939
upperneck 40.9499 -26.4295 7.01383
head 17.7224 -11.676 1.66664
rclavicle -1.12512e-013 2.06736e-014
rhumerus -31.5708 -8.6571 -71.7031
rradius 44.1013
rwrist -0.607961
rhand -15.0374 8.41662
rfingers 7.12502
rthumb 11.1287 -21.2683
lclavicle -1.12512e-013 2.06736e-014
lhumerus -33.9179 6.91969 79.9542
lradius 39.7214
lwrist -5.23252
lhand -18.6884 27.5535
lfingers 7.12502
lthumb 7.60592 57.3968
rfemur -24.3397 0.678235 22.8888
rtibia 27.8384
rfoot -8.42579 3.52426
rtoes 1.93164
lfemur -2.256 8.89748 -25.7987
ltibia 37.0965
lfoot -5.33609 -9.18203
ltoes -18.3706
3165
root -9.53663 18.0034 9.02564 904.014 48.1758 -543.791
lowerback 12.352 -5.74649 -2.66637
upperback 2.12387 -7.29607 6.70462
thorax -3.39955 -3.46271 9.69339
lowerneck 3.80199 -19.3367 -14.2863
upperneck 40.9796 -26.2496 7.04724
head 17.7921 -11.613 1.72254
rclavicle -4.29375e-014 1.03368e-013
rhumerus -31.57 -8.50771 -71.6606
rradius 44.0873
rwrist -0.914085
rhand -15.1509 8.54248
rfingers 7.12502
rthumb 11.0192 -21.1483
lclavicle -4.29375e-014 1.03368e-013
lhumerus -33.7482 6.98548 80.0367
lradius 39.8546
lwrist -5.39686
lhand -18.739 27.5092
lfingers 7.12502
lthumb 7.55712 57.3542
rfemur -24.8793 0.484717 22.9663
rtibia 28.0447
rfoot -8.15786 3.39069
rtoes 2.25651
lfemur -1.4679 8.88975 -26.0853
ltibia 35.9649
lfoot -5.09038 -9.106
ltoes -17.9859
3166
root -9.58998 17.9832 9.12307 904.096 47.7892 -543.78
lowerback 12.2293 -5.8501 -2.78409
upperback 2.07878 -7.44922 6.7617
thorax -3.32848 -3.54213 9.82782
lowerneck 3.68569 -19.2372 -14.3315
upperneck 41.0232 -26.0516 6.9341
head 17.7916 -11.54 1.71062
rclavicle 4.05521e-014 -1.43125e-014
rhumerus -31.5875 -8.71469 -71.568
rradius 44.0136
rwrist -0.509787
rhand -15.0523 8.44504
rfingers 7.12502
rthumb 11.1143 -21.2406
lclavicle 4.05521e-014 -1.43125e-014
lhumerus -33.5753 6.81151 80.1515
lradius 39.8983
lwrist -5.41768
lhand -19.0438 27.8497
lfingers 7.12502
lthumb 7.26286 57.705
rfemur -25.4593 0.423538 23.0602
rtibia 28.2977
rfoot -7.87993 3.17262
rtoes 2.81917
lfemur -0.679744 8.91445 -26.3222
ltibia 34.7491
lfoot -4.79332 -8.95025
ltoes -17.128
3167
root -9.64748 17.9649 9.22526 904.227 47.3474 -543.693
lowerback 12.1985 -5.87018 -2.85888
upperback 1.94867 -7.48617 6.80225
thorax -3.42709 -3.55487 9.92646
lowerneck 3.95154 -19.2216 -14.4407
upperneck 40.9154 -26.0378 7.00955
head 17.7056 -11.5553 1.7884
rclavicle 4.05521e-014 5.88403e-014
rhumerus -31.8998 -9.0878 -71.4226
rradius 43.9866
rwrist -0.13233
rhand -14.8775 8.27172
rfingers 7.12502
rthumb 11.2829 -21.4048
lclavicle 4.05521e-014 5.88403e-014
lhumerus -33.4874 6.2169 80.3098
lradius 40.0001
lwrist -5.18255
lhand -19.6619 28.3002
lfingers 7.12502
lthumb 6.66619 58.1753
rfemur -26.0992 0.373783 23.2032
rtibia 28.635
rfoot -7.60933 2.93342
rtoes 3.12677
lfemur 0.102395 8.96285 -26.4769
ltibia 33.3862
lfoot -4.41092 -8.81198
ltoes -16.2835
3168
root -9.70399 17.947 9.32134 904.072 46.8758 -543.869
lowerback 12.1598 -5.82725 -3.0543
upperback 1.80504 -7.4719 6.70834
thorax -3.54867 -3.54322 9.9405
lowerneck 4.56549 -19.2522 -14.4992
upperneck 40.6663 -26.1657 7.29658
head 17.5237 -11.6222 1.95969
rclavicle -8.26944e-014 -4.92986e-014
rhumerus -32.5009 -9.44908 -71.3181
rradius 44.0934
rwrist -0.28719
rhand -15.0515 8.04815
rfingers 7.12502
rthumb 11.1151 -21.6375
lclavicle -8.26944e-014 -4.92986e-014
lhumerus -33.5309 5.58795 80.3504
lradius 40.2345
lwrist -5.01016
lhand -19.7887 28.2413
lfingers 7.12502
lthumb 6.54384 58.1202
rfemur -26.6724 0.152816 23.1483
rtibia 29.0844
rfoot -7.51544 2.81902
rtoes 3.07046
lfemur 1.08421 9.02528 -26.8155
ltibia 31.805
lfoot -4.06787 -8.64973
ltoes -16.8316
3169
root -9.75511 17.925 9.41154 903.779 46.4913 -544.213
lowerback 11.9728 -5.78465 -3.28672
upperback 1.80174 -7.47349 6.50972
thorax -3.44704 -3.55357 9.82968
lowerneck 4.7981 -19.3008 -14.2746
upperneck 40.5182 -26.2946 7.46406
head 17.4001 -11.6445 2.00847
rclavicle -2.74323e-014 2.54444e-014
rhumerus -32.8892 -10.0228 -71.2873
rradius 44.1441
rwrist -0.068833
rhand -14.9364 8.24038
rfingers 7.12502
rthumb 11.2261 -21.4393
lclavicle -2.74323e-014 2.54444e-014
lhumerus -33.3815 5.18979 80.2405
lradius 40.4481
lwrist -5.00242
lhand -19.818 28.0075
lfingers 7.12502
lthumb 6.51551 57.8873
rfemur -27.2286 -0.0603112 22.9549
rtibia 29.6047
rfoot -7.55575 2.71439
rtoes 2.6449
lfemur 2.21606 9.03727 -27.3133
ltibia 30.021
lfoot -3.65682 -8.34358
ltoes -16.778
3170
root -9.80617 17.8998 9.50252 903.378 46.1609 -544.703
lowerback 11.8153 -5.78674 -3.67013
upperback 1.84643 -7.54906 6.34255
thorax -3.27174 -3.60381 9.84732
lowerneck 4.71527 -19.2435 -14.1554
upperneck 40.4889 -26.2248 7.51643
head 17.3759 -11.5901 2.0262
rclavicle 7.31528e-014 1.17681e-013
rhumerus -32.9946 -10.1177 -71.3632
rradius 44.1341
rwrist 0.0436571
rhand -14.6308 8.45984
rfingers 7.12502
rthumb 11.5208 -21.2035
lclavicle 7.31528e-014 1.17681e-013
lhumerus -33.1545 4.92565 80.1467
lradius 40.6119
lwrist -4.85973
lhand -19.907 27.9525
lfingers 7.12502
lthumb 6.42963 57.8349
rfemur -27.8247 -0.301039 22.6517
rtibia 30.1749
rfoot -7.57954 2.75048
rtoes 2.2292
lfemur 3.39997 9.12333 -27.9061
ltibia 28.0505
lfoot -3.067 -8.10351
ltoes -15.5153
3171
root -9.86061 17.8758 9.60137 903.127 45.8197 -545.039
lowerback 11.7262 -5.78951 -4.05172
upperback 1.86445 -7.61412 6.26826
thorax -3.15036 -3.64417 9.97615
lowerneck 4.55488 -19.1381 -14.1994
upperneck 40.5132 -26.0821 7.58997
head 17.427 -11.5163 2.07612
rclavicle -7.63333e-014 -1.59028e-014
rhumerus -33.1308 -9.90359 -71.5055
rradius 44.2702
rwrist -0.346522
rhand -14.494 8.49781
rfingers 7.12502
rthumb 11.6527 -21.1582
lclavicle -7.63333e-014 -1.59028e-014
lhumerus -32.9094 4.82312 80.0339
lradius 40.7162
lwrist -4.5819
lhand -19.4544 27.0238
lfingers 7.12502
lthumb 6.86652 56.8925
rfemur -28.4771 -0.5845 22.502
rtibia 30.6876
rfoot -7.4572 2.81534
rtoes 2.12424
lfemur 4.5331 9.26004 -28.3557
ltibia 25.9539
lfoot -2.3887 -7.91188
ltoes -14.5214
3172
root -9.92156 17.8521 9.70831 903.034 45.4344 -545.25
lowerback 11.7075 -5.77342 -4.3502
upperback 1.82284 -7.64028 6.22397
thorax -3.14498 -3.65792 10.1015
lowerneck 4.44394 -19.0905 -14.144
upperneck 40.4706 -26.0169 7.62637
head 17.4112 -11.4722 2.08954
rclavicle -5.80451e-014 8.26944e-014
rhumerus -33.2906 -9.92097 -71.5579
rradius 44.3571
rwrist -0.562941
rhand -14.3445 8.45549
rfingers 7.12502
rthumb 11.7969 -21.1923
lclavicle -5.80451e-014 8.26944e-014
lhumerus -32.6729 4.78522 79.959
lradius 40.8581
lwrist -4.38884
lhand -19.2674 26.3487
lfingers 7.12502
lthumb 7.047 56.2114
rfemur -29.2061 -0.810405 22.4379
rtibia 31.1147
rfoot -7.19329 2.76904
rtoes 3.17312
lfemur 5.59611 9.36049 -28.7299
ltibia 23.8015
lfoot -1.96287 -7.6408
ltoes -16.3494
